<svg width="36" height="33" viewBox="0 0 36 33" fill="none" xmlns="http://www.w3.org/2000/svg">
<path fill-rule="evenodd" clip-rule="evenodd" d="M17.6181 0.0907169C17.4591 0.136938 17.1726 0.31388 16.9815 0.483923C16.7248 0.712285 14.4945 4.54652 8.44444 15.1602C3.94024 23.0622 0.196562 29.6922 0.125293 29.8938C-0.170462 30.7292 0.0636655 31.4469 0.761134 31.8431L1.17712 32.0794L5.85589 32.1078L10.5347 32.1362L11.2908 31.8914C12.2036 31.5959 13.2467 30.9124 13.6869 30.3212C14.1921 29.6429 23.8191 12.9466 24.0364 12.3719C24.306 11.6592 24.3213 9.91539 24.0645 9.17595C23.848 8.55212 19.5515 0.98838 19.2019 0.615779C18.936 0.332217 18.2935 -0.0107983 18.0491 0.000260652C17.9711 0.00385244 17.7771 0.0444963 17.6181 0.0907169ZM28.021 18.7446C27.865 18.8144 27.6036 19.0148 27.44 19.1899C27.1883 19.4593 21.9946 28.3248 21.3631 29.5631C20.8726 30.5249 21.0548 31.3975 21.8392 31.8431L22.2552 32.0794H28.5881C34.8063 32.0794 34.927 32.076 35.2515 31.8853C35.4333 31.7785 35.6815 31.5446 35.8032 31.3654C35.9912 31.0885 36.0192 30.9477 35.9902 30.4253C35.9562 29.8137 35.9429 29.7879 33.0412 24.7068C31.438 21.8996 30.0224 19.4641 29.8952 19.2947C29.4488 18.6996 28.6472 18.4643 28.021 18.7446Z" fill="#8F9095"/>
</svg>
