<svg width="20" height="20" viewBox="0 0 20 20" fill="none" xmlns="http://www.w3.org/2000/svg">
<path fill-rule="evenodd" clip-rule="evenodd" d="M6.90578 3.06568L3.84554 6.13135L4.96572 7.25333L6.0859 8.37523L8.04295 6.41592L10 4.4566L11.9573 6.41618L13.9146 8.37577L15.0343 7.25279L16.154 6.12981L13.0935 3.06494C11.4102 1.3792 10.0179 0 9.99947 0C9.98107 0 8.58889 1.37953 6.90578 3.06568ZM8.82905 8.84473L7.69308 9.98399L8.84651 11.1393L10 12.2947L11.1535 11.1393L12.3069 9.98399L11.171 8.84473C10.5461 8.21811 10.0192 7.7054 10 7.7054C9.9808 7.7054 9.45386 8.21811 8.82905 8.84473ZM1.10252 8.87823L0 9.98405L1.12005 11.1058L2.24002 12.2277L3.36 11.1058L4.48005 9.98405L3.37753 8.87823C2.77111 8.27004 2.25929 7.7724 2.24002 7.7724C2.22076 7.7724 1.70893 8.27004 1.10252 8.87823ZM16.6225 8.87823L15.52 9.98405L16.64 11.1058L17.76 12.2277L18.88 11.1058L20 9.98405L18.8975 8.87823C18.2911 8.27004 17.7792 7.7724 17.76 7.7724C17.7407 7.7724 17.2289 8.27004 16.6225 8.87823ZM4.96572 12.7142L3.846 13.8372L6.92297 16.9186L10 20L13.077 16.9186L16.154 13.8372L15.0343 12.7142L13.9146 11.5913L11.9573 13.5508L10 15.5104L8.04268 13.5508L6.08543 11.5913L4.96572 12.7142Z" fill="white"/>
</svg>
