<svg width="41" height="40" viewBox="0 0 41 40" fill="none" xmlns="http://www.w3.org/2000/svg">
<path fill-rule="evenodd" clip-rule="evenodd" d="M13.9371 6.13135L7.76099 12.2627L10.0217 14.5067L12.2824 16.7505L16.2321 12.8318L20.1818 8.9132L24.132 12.8324L28.0821 16.7515L30.3419 14.5056L32.6017 12.2596L26.425 6.12988C23.0278 2.7584 20.2179 0 20.1807 0C20.1436 0 17.3339 2.75907 13.9371 6.13135ZM17.8186 17.6895L15.526 19.968L17.8539 22.2787L20.1818 24.5893L22.5098 22.2787L24.8376 19.968L22.545 17.6895C21.284 16.4362 20.2206 15.4108 20.1818 15.4108C20.1431 15.4108 19.0796 16.4362 17.8186 17.6895ZM2.22508 17.7565L0 19.9681L2.26046 22.2116L4.52078 24.4553L6.7811 22.2116L9.04155 19.9681L6.81647 17.7565C5.59261 16.5401 4.55966 15.5448 4.52078 15.5448C4.48189 15.5448 3.44894 16.5401 2.22508 17.7565ZM33.5472 17.7565L31.3221 19.9681L33.5825 22.2116L35.8429 24.4553L38.1032 22.2116L40.3636 19.9681L38.1386 17.7565C36.9147 16.5401 35.8817 15.5448 35.8429 15.5448C35.804 15.5448 34.771 16.5401 33.5472 17.7565ZM10.0217 25.4285L7.76194 27.6744L13.9718 33.8372L20.1818 40L26.3918 33.8372L32.6017 27.6744L30.3419 25.4285L28.0821 23.1825L24.132 27.1017L20.1818 31.0209L16.2316 27.1017L12.2815 23.1825L10.0217 25.4285Z" fill="#8F9095"/>
</svg>
