<svg width="20" height="18" viewBox="0 0 20 18" fill="none" xmlns="http://www.w3.org/2000/svg">
<path fill-rule="evenodd" clip-rule="evenodd" d="M5.09989 0.0256426C5.05876 0.0397425 4.99333 0.0661974 4.95448 0.0844291C4.89416 0.112739 0.710111 2.55583 0.511448 2.67874C0.426879 2.73105 0.293391 2.85679 0.226301 2.94732C0.12724 3.08098 0.054043 3.24941 0.0179207 3.42679C0.000982782 3.50996 0 3.65756 0 6.11215C0 8.56674 0.000982782 8.71434 0.0179207 8.7975C0.0876482 9.1399 0.291395 9.44186 0.581647 9.63297C0.712778 9.7193 4.84573 12.1138 4.94458 12.1607C5.26628 12.3134 5.6859 12.3074 6.04502 12.145C6.07926 12.1295 6.69847 11.7726 7.42101 11.352C8.14356 10.9313 9.23114 10.2996 9.83786 9.94817C10.8606 9.35575 11.3467 9.07331 13.1518 8.02279C13.8934 7.5912 13.9408 7.56544 14.0635 7.52697C14.2121 7.48039 14.3123 7.46806 14.491 7.47433C14.6957 7.4815 14.8383 7.51289 15.0125 7.5891C15.0775 7.61755 17.3034 8.90751 17.4193 8.98391C17.5095 9.04335 17.6658 9.19962 17.732 9.2966C17.8295 9.43928 17.9028 9.61009 17.9428 9.78781C17.9581 9.85567 17.96 9.99615 17.9633 11.2718C17.9671 12.76 17.9663 12.7944 17.9209 12.964C17.848 13.2363 17.6658 13.501 17.4322 13.6739C17.3609 13.7267 15.2326 14.9974 15.0939 15.07C14.7613 15.2442 14.3179 15.2439 13.9419 15.0694C13.8649 15.0337 11.7092 13.7833 11.5728 13.6953C11.5284 13.6666 11.4478 13.5987 11.3922 13.5432C11.2485 13.3995 11.1532 13.2497 11.0881 13.0652C11.0194 12.8704 11.0228 12.9261 11.0167 11.9029L11.0112 10.9746L10.0209 11.5469L9.03053 12.1192L9.03367 13.0618C9.03672 13.9803 9.03735 14.0068 9.05799 14.0948C9.14077 14.4474 9.33553 14.7261 9.63729 14.9238C9.72217 14.9794 13.8738 17.3842 13.9545 17.4245C14.1107 17.5025 14.0964 17.5007 14.5226 17.4973L14.9022 17.4944L15.0084 17.4516C15.088 17.4196 15.6515 17.0974 17.2498 16.1702C18.4241 15.4889 19.4165 14.9103 19.4551 14.8844C19.5477 14.8223 19.7046 14.6651 19.7679 14.571C19.8663 14.4245 19.9328 14.2699 19.9735 14.0922L19.996 13.9945L19.9993 11.4623C20.0014 9.82276 19.999 8.88417 19.9924 8.79976C19.9628 8.41722 19.782 8.08664 19.4772 7.8578C19.389 7.79154 15.1432 5.32539 15.0376 5.27903C14.8606 5.20136 14.6735 5.16775 14.4718 5.1774C14.2874 5.18623 14.082 5.23751 13.9254 5.31381C13.8945 5.32884 13.2104 5.72946 12.4051 6.20409C11.1622 6.93663 10.7947 7.14776 9.97324 7.60132C9.05285 8.10945 8.93412 8.17839 7.54637 9.0105C6.74385 9.49169 6.06323 9.89746 6.03389 9.91221C5.80675 10.0264 5.46435 10.0596 5.18654 9.9943C4.96317 9.94183 4.95191 9.93565 3.70549 9.18199C3.06844 8.79679 2.51456 8.45688 2.47466 8.42664C2.33498 8.32079 2.19385 8.14883 2.11154 7.98416C2.09409 7.94926 2.06438 7.87457 2.0455 7.81818C1.97732 7.61442 1.97953 7.67598 1.98277 6.06201L1.98571 4.60789L2.01259 4.5104C2.10253 4.18423 2.28611 3.92396 2.55485 3.74163C2.61466 3.70104 4.76093 2.45176 4.88383 2.386C5.04971 2.29723 5.20378 2.25715 5.41032 2.24905C5.62215 2.24073 5.80645 2.27408 6.00748 2.35708C6.08378 2.38859 8.31754 3.72978 8.45895 3.82899C8.54625 3.89024 8.68273 4.02941 8.74644 4.12216C8.8423 4.26171 8.91371 4.42611 8.95743 4.60789C8.97243 4.67021 8.97495 4.78451 8.97988 5.62699L8.98544 6.57589L9.94871 6.0181C10.4785 5.71131 10.9242 5.4523 10.939 5.44252L10.9661 5.42474L10.9659 4.55501C10.9658 4.07197 10.9613 3.63217 10.9558 3.56583C10.9287 3.23766 10.7986 2.9663 10.559 2.73759C10.5098 2.69071 10.4358 2.62937 10.3944 2.60129C10.2449 2.49977 6.10591 0.0757144 6.02205 0.0405749L5.93681 0.00485376L5.55573 0.00242692L5.17465 0L5.09989 0.0256426Z" fill="white"/>
</svg>
