<svg width="25" height="36" viewBox="0 0 25 36" fill="none" xmlns="http://www.w3.org/2000/svg">
<path fill-rule="evenodd" clip-rule="evenodd" d="M2.92302 2.92698L0 5.85396L0.00629997 15.212C0.01098 22.2916 0.0721803 24.8987 0.25704 25.92C1.7289 34.0452 10.7181 38.2808 17.962 34.2625C20.315 32.9573 22.5446 30.2922 23.3816 27.7844C23.8585 26.3563 24.2068 24.1348 23.9881 23.9161C23.897 23.825 22.5364 23.773 20.9583 23.8003L18.0941 23.85L17.9694 24.723C17.6852 26.7131 16.3764 28.4051 14.4216 29.3092C13.619 29.6806 13.1294 29.7781 12.0514 29.7812C10.8758 29.7848 10.5316 29.7059 9.4959 29.196C8.05824 28.4882 7.00038 27.3596 6.48594 25.9848C6.16284 25.1212 6.12 24.5855 6.12 21.4132V17.82H12.107H18.0941L21.06 14.85L24.0259 11.88H15.073H6.12V5.94C6.12 2.673 6.05826 0 5.98302 0C5.9076 0 4.5306 1.31706 2.92302 2.92698Z" fill="#8F9095"/>
</svg>
