<svg width="18" height="16" viewBox="0 0 18 16" fill="none" xmlns="http://www.w3.org/2000/svg">
<path fill-rule="evenodd" clip-rule="evenodd" d="M8.64729 0.113428C8.29182 0.285146 0 14.8584 0 15.3114C0 15.945 0.205288 15.9937 2.86818 15.9925C5.13828 15.9915 5.27025 15.9797 5.79755 15.73C6.10123 15.5861 6.50761 15.3009 6.70053 15.0961C6.99339 14.7852 11.0789 7.85056 11.7018 6.60712C11.9728 6.06591 12.0538 5.40189 11.929 4.74407C11.8076 4.10358 9.89161 0.640066 9.43178 0.229821C9.12556 -0.0433817 9.00795 -0.0609399 8.64729 0.113428ZM13.827 9.56111C13.4314 9.90543 10.6012 14.9581 10.6012 15.3199C10.6012 15.9694 10.7352 15.9936 14.3252 15.9936C17.4111 15.9936 17.5683 15.9836 17.7791 15.7728C17.9006 15.6513 18 15.4365 18 15.2954C18 14.9928 15.1059 9.84304 14.7774 9.56111C14.6535 9.45477 14.439 9.36786 14.3006 9.36786C14.1622 9.36786 13.9491 9.45477 13.827 9.56111Z" fill="white"/>
</svg>
