<svg width="25" height="40" viewBox="0 0 25 40" fill="none" xmlns="http://www.w3.org/2000/svg">
<path fill-rule="evenodd" clip-rule="evenodd" d="M12.0603 0.158447C12.013 0.259021 9.27643 4.84045 5.97907 10.3395C2.68164 15.8385 -0.00892472 20.3443 2.22492e-05 20.3524C0.00896922 20.3605 2.75984 21.9975 6.11304 23.9902C11.5777 27.2378 12.2277 27.6037 12.3839 27.5202C12.5092 27.4532 24.3786 20.4159 24.4736 20.3523C24.4806 20.3475 24.1277 19.7472 23.6893 19.0182C22.9357 17.7651 20.2421 13.2733 14.732 4.08076C13.396 1.85182 12.2676 0.0163416 12.2245 0.00188207C12.1815 -0.0125775 12.1076 0.0578727 12.0603 0.158447ZM0.114655 22.8942C0.157473 22.9494 2.88047 26.8083 6.16568 31.4695C9.4509 36.1307 12.1613 39.9692 12.1887 39.9994C12.2161 40.0296 12.9934 38.9843 13.9161 37.6764C20.1829 28.7929 23.8693 23.5737 24.1699 23.159C24.3286 22.9401 24.4229 22.7814 24.3796 22.8064C24.1238 22.9543 14.6546 28.572 13.5965 29.2036C12.8936 29.6233 12.2825 29.9661 12.2385 29.9656C12.1946 29.965 9.44746 28.3511 6.13373 26.3792C2.82008 24.4072 0.0926074 22.7938 0.0727963 22.7938C0.0529052 22.7938 0.0717578 22.839 0.114655 22.8942Z" fill="#8F9095"/>
</svg>
