<svg width="13" height="20" viewBox="0 0 13 20" fill="none" xmlns="http://www.w3.org/2000/svg">
<path d="M8.79829 6.15465C8.79829 3.28359 7.36078 0.813779 6.26796 0.00961485C6.26276 0.00792896 6.18483 -0.035904 6.19175 0.0787357C6.19175 0.0804219 6.19002 0.0804219 6.19002 0.082108C6.09996 5.62697 3.19037 7.12909 1.59009 9.15384C-2.10232 13.8254 1.33203 18.9471 4.82874 19.8929C6.78579 20.4222 4.37671 18.9556 4.06671 15.8569C3.69088 12.1126 8.79829 9.25499 8.79829 6.15465Z" fill="white"/>
<path d="M10.4965 8.04263C10.474 8.0274 10.4428 8.01733 10.4203 8.05271C10.3596 8.7507 9.62704 10.2444 8.69875 11.6149C5.55017 16.2646 7.34442 18.5069 8.35415 19.7106C8.93952 20.4102 8.35415 19.7106 9.81758 18.9958C9.93188 18.9401 12.6752 17.4431 12.9714 14.0325C13.2606 10.7299 11.2222 8.64785 10.4965 8.04263Z" fill="white"/>
</svg>
