<svg width="30" height="32" viewBox="0 0 30 32" fill="none" xmlns="http://www.w3.org/2000/svg">
<path d="M29.2904 10.217V1.56012C29.2904 0.697945 28.5924 0 27.7302 0H27.7244H21.261C21.261 0 21.261 8.77419 21.261 11.2669C21.2552 14.4692 18.6569 17.0557 15.4604 17.0557C15.4487 17.0557 15.4311 17.0557 15.4194 17.0557H14.0118C11.9179 17.0557 10.2229 18.7507 10.2229 20.8446V24.9032C11.003 25.0381 14.5689 25.1144 15.3959 25.1144C15.4898 25.1144 15.5777 25.1144 15.6716 25.1085C17.6716 25.0733 19.5719 24.61 21.2786 23.8123C21.2903 23.8065 21.3021 23.8006 21.3138 23.7947C25.7772 21.7067 28.9443 17.3196 29.2962 12.1584C29.3197 11.8358 29.3314 11.5132 29.3314 11.1848C29.3255 10.8622 29.3138 10.5396 29.2904 10.217Z" fill="#01943F"/>
<path d="M13.871 14.9444C13.8886 14.9444 13.9062 14.9444 13.9238 14.9444H15.3138C17.4076 14.9444 19.1026 13.2494 19.1026 11.1555V7.09689C18.3226 6.96199 14.7566 6.88574 13.9296 6.88574C11.8182 6.88574 9.81232 7.35495 8.0176 8.19952C3.55425 10.2875 0.387095 14.6746 0.0351892 19.8359C0.0117288 20.1585 0 20.4811 0 20.8095C0 21.1379 0.0117288 21.4605 0.0351892 21.7831V30.44C0.0351892 31.3022 0.733139 32.0001 1.59531 32.0001H8.05865H8.06452C8.06452 32.0001 8.06452 28.7157 8.06452 25.5896V20.7333C8.07038 17.5309 10.6686 14.9444 13.871 14.9444Z" fill="#01943F"/>
<path d="M7.28448 6.65103C7.30794 6.6393 7.32553 6.62757 7.349 6.6217C7.58946 6.51027 7.82994 6.40469 8.07041 6.31085V1.56598C8.07041 0.703811 7.37246 0 6.51029 0H0.0410767V13.6188C1.59533 10.61 4.11732 8.1349 7.28448 6.65103Z" fill="#01943F"/>
<path d="M22.0528 25.3488C22.0293 25.3606 22.0117 25.3723 21.9883 25.3782C21.7478 25.4896 21.5073 25.5952 21.2668 25.689V30.4339C21.2668 31.2961 21.9648 31.9999 22.827 31.9999H29.2903V18.3811C27.7361 21.3899 25.2141 23.865 22.0528 25.3488Z" fill="#01943F"/>
</svg>
