<svg width="38" height="34" viewBox="0 0 38 34" fill="none" xmlns="http://www.w3.org/2000/svg">
<path fill-rule="evenodd" clip-rule="evenodd" d="M9.66235 0.048583C9.58444 0.075297 9.46046 0.125419 9.38686 0.159961C9.27257 0.213598 1.34539 4.84232 0.969 5.07519C0.808773 5.17431 0.555864 5.41253 0.428754 5.58404C0.241072 5.83729 0.102391 6.1564 0.033953 6.49247C0.001862 6.65004 0 6.92968 0 11.5802C0 16.2307 0.001862 16.5104 0.033953 16.6679C0.16606 17.3166 0.552083 17.8887 1.102 18.2508C1.35044 18.4144 9.18082 22.9511 9.3681 23.04C9.9776 23.3292 10.7726 23.3178 11.453 23.0101C11.5179 22.9807 12.691 22.3046 14.06 21.5077C15.4289 20.7107 17.4895 19.5138 18.639 18.848C20.5767 17.7256 21.4977 17.1905 24.9177 15.2001C26.3228 14.3824 26.4125 14.3336 26.6449 14.2608C26.9265 14.1725 27.1163 14.1491 27.455 14.161C27.8427 14.1746 28.113 14.2341 28.443 14.3785C28.5662 14.4324 32.7834 16.8764 33.003 17.0211C33.1738 17.1337 33.4699 17.4298 33.5954 17.6135C33.7801 17.8838 33.919 18.2075 33.9947 18.5442C34.0237 18.6727 34.0274 18.9389 34.0336 21.3557C34.0409 24.1753 34.0393 24.2406 33.9533 24.5618C33.8152 25.0778 33.4701 25.5792 33.0274 25.9068C32.8922 26.0068 28.86 28.4144 28.5973 28.5519C27.967 28.8819 27.1269 28.8815 26.4146 28.5509C26.2687 28.4831 22.1845 26.1142 21.926 25.9473C21.8418 25.893 21.6892 25.7644 21.5839 25.6592C21.3117 25.387 21.1311 25.1031 21.0078 24.7537C20.8776 24.3845 20.8841 24.4901 20.8725 22.5515L20.862 20.7928L18.9857 21.877L17.1094 22.9612L17.1154 24.7472C17.1211 26.4873 17.1223 26.5376 17.1614 26.7042C17.3183 27.3723 17.6873 27.9004 18.259 28.2749C18.4198 28.3803 26.2856 32.9364 26.4385 33.0128C26.7344 33.1606 26.7073 33.1571 27.5148 33.1508L28.234 33.1452L28.4353 33.0642C28.5859 33.0035 29.6536 32.3931 32.6818 30.6363C34.9066 29.3456 36.7868 28.2494 36.86 28.2003C37.0355 28.0827 37.3327 27.7848 37.4526 27.6065C37.6391 27.329 37.765 27.036 37.8423 26.6993L37.8848 26.5142L37.891 21.7167C37.895 18.6104 37.8904 16.8321 37.878 16.6722C37.8218 15.9474 37.4793 15.3211 36.9019 14.8875C36.7348 14.762 28.6906 10.0896 28.4905 10.0018C28.1551 9.8546 27.8007 9.79093 27.4186 9.80921C27.0692 9.82593 26.68 9.92309 26.3833 10.0676C26.3248 10.0961 25.0287 10.8552 23.503 11.7544C21.1482 13.1423 20.4519 13.5423 18.8955 14.4016C17.1517 15.3643 16.9268 15.4949 14.2975 17.0715C12.777 17.9831 11.4875 18.7519 11.4319 18.7799C11.0016 18.9962 10.3529 19.059 9.82651 18.9354C9.40333 18.836 9.38199 18.8243 7.0205 17.3964C5.81352 16.6666 4.76414 16.0226 4.68853 15.9653C4.4239 15.7647 4.15652 15.4389 4.00056 15.1269C3.9675 15.0608 3.91121 14.9193 3.87545 14.8125C3.74627 14.4264 3.75045 14.5431 3.7566 11.4852L3.76217 8.7302L3.81309 8.5455C3.9835 7.92752 4.33132 7.43441 4.84048 7.08896C4.95379 7.01206 9.02015 4.64516 9.253 4.52056C9.56728 4.35237 9.85918 4.27644 10.2505 4.26109C10.6518 4.24532 11.001 4.30852 11.3819 4.46578C11.5264 4.52548 15.7586 7.06652 16.0265 7.25448C16.1919 7.37052 16.4505 7.6342 16.5712 7.80993C16.7528 8.07432 16.8881 8.3858 16.9709 8.7302C16.9993 8.84828 17.0041 9.06482 17.0135 10.661L17.024 12.4588L18.849 11.402C19.8528 10.8208 20.6971 10.33 20.7253 10.3115L20.7765 10.2778L20.7762 8.63001C20.776 7.71484 20.7676 6.88157 20.7572 6.75589C20.7057 6.13413 20.4593 5.62001 20.0052 5.1867C19.9121 5.09787 19.7718 4.98165 19.6935 4.92845C19.4103 4.73611 11.5684 0.14345 11.4095 0.076874L11.248 0.00919602L10.526 0.00459808L9.804 0L9.66235 0.048583Z" fill="#8F9095"/>
</svg>
