<svg width="18" height="18" viewBox="0 0 18 18" fill="none" xmlns="http://www.w3.org/2000/svg">
<g clip-path="url(#clip0)">
<path d="M12.1908 5.80965C11.3813 5.00013 10.2385 4.47632 9.00037 4.47632C7.76228 4.47632 6.61942 4.97632 5.8099 5.80965C5.00037 6.61918 4.47656 7.76203 4.47656 9.00013C4.47656 10.2382 5.00037 11.3811 5.8099 12.1906C6.61942 13.0001 7.76228 13.5239 9.00037 13.5239C10.2385 13.5239 11.3813 13.0239 12.1908 12.1906C13.0004 11.3811 13.5242 10.2382 13.5242 9.00013C13.5242 7.76203 13.0242 6.61918 12.1908 5.80965ZM11.3337 11.3335C10.7385 11.9287 9.90513 12.2858 9.00037 12.2858C8.09561 12.2858 7.26228 11.9287 6.66704 11.3335C6.0718 10.7382 5.71466 9.90489 5.71466 9.00013C5.71466 8.09537 6.0718 7.26203 6.66704 6.66679C7.26228 6.07156 8.09561 5.71441 9.00037 5.71441C9.90513 5.71441 10.7385 6.07156 11.3337 6.66679C11.9289 7.26203 12.2861 8.09537 12.2861 9.00013C12.2861 9.90489 11.9289 10.7382 11.3337 11.3335Z" fill="#212C3E"/>
<path d="M17.3811 8.38086H15.5478C15.2144 8.38086 14.9287 8.66657 14.9287 8.99991C14.9287 9.33324 15.2144 9.61895 15.5478 9.61895H17.3811C17.7144 9.61895 18.0001 9.33324 18.0001 8.99991C18.0001 8.66657 17.7144 8.38086 17.3811 8.38086Z" fill="#212C3E"/>
<path d="M8.99991 14.9286C8.66657 14.9286 8.38086 15.2143 8.38086 15.5476V17.381C8.38086 17.7143 8.66657 18 8.99991 18C9.33324 18 9.61896 17.7143 9.61896 17.381V15.5476C9.61896 15.2143 9.33324 14.9286 8.99991 14.9286Z" fill="#212C3E"/>
<path d="M15.357 14.5001L14.0474 13.1905C13.8331 12.9524 13.4284 12.9524 13.1903 13.1905C12.9522 13.4286 12.9522 13.8096 13.1903 14.0477L14.4998 15.3572C14.7379 15.5953 15.1189 15.5953 15.357 15.3572C15.5951 15.1191 15.5951 14.7382 15.357 14.5001Z" fill="#212C3E"/>
<path d="M8.99991 0C8.66657 0 8.38086 0.285714 8.38086 0.619047V2.45238C8.38086 2.78571 8.66657 3.07143 8.99991 3.07143C9.33324 3.07143 9.61896 2.78571 9.61896 2.45238V0.619047C9.61896 0.285714 9.33324 0 8.99991 0Z" fill="#212C3E"/>
<path d="M15.3814 2.64293C15.1433 2.40483 14.7623 2.40483 14.5242 2.64293L13.2147 3.95245C12.9766 4.19055 12.9766 4.5715 13.2147 4.8096C13.429 5.04769 13.8338 5.04769 14.0718 4.8096L15.3814 3.50007C15.6195 3.26197 15.6195 2.88102 15.3814 2.64293Z" fill="#212C3E"/>
<path d="M2.45238 8.38086H0.619047C0.285714 8.38086 0 8.66657 0 8.99991C0 9.33324 0.261905 9.61895 0.619047 9.61895H2.45238C2.78571 9.61895 3.07143 9.33324 3.07143 8.99991C3.07143 8.66657 2.78571 8.38086 2.45238 8.38086Z" fill="#212C3E"/>
<path d="M4.78567 13.1905C4.57138 12.9524 4.16662 12.9524 3.92853 13.1905L2.619 14.5001C2.38091 14.7382 2.38091 15.1191 2.619 15.3572C2.8571 15.5953 3.23805 15.5953 3.47614 15.3572L4.78567 14.0477C5.02376 13.8096 5.02376 13.4286 4.78567 13.1905Z" fill="#212C3E"/>
<path d="M4.78567 3.95245L3.47614 2.64293C3.23805 2.40483 2.8571 2.40483 2.619 2.64293C2.38091 2.88102 2.38091 3.26197 2.619 3.50007L3.92853 4.8096C4.16662 5.04769 4.54757 5.04769 4.78567 4.8096C5.02376 4.5715 5.02376 4.19055 4.78567 3.95245Z" fill="#212C3E"/>
</g>
<defs>
<clipPath id="clip0">
<rect width="18" height="18" fill="white"/>
</clipPath>
</defs>
</svg>
