<svg width="40" height="35" viewBox="0 0 40 35" fill="none" xmlns="http://www.w3.org/2000/svg">
<path fill-rule="evenodd" clip-rule="evenodd" d="M11.7561 9.16922C13.0495 4.42609 17.0139 0.888433 21.9141 0.104916C22.8064 -0.0377399 24.702 -0.0343807 25.6854 0.111713C29.6908 0.706401 33.2234 3.31234 34.9984 6.98172C35.8026 8.64414 36.1522 9.98219 36.2248 11.6766C36.2718 12.7702 36.2708 12.7786 36.0875 12.907C35.9176 13.0261 34.9349 13.0364 23.7717 13.0364C13.0524 13.0364 11.4434 13.109 11.2854 12.6652C11.236 12.5264 11.3285 12.3371 11.3286 12.0794C11.3292 11.2817 11.5033 10.0966 11.7561 9.16922ZM5.94117 16.2897C5.8143 15.9054 6.01125 15.5097 6.40625 15.3546C6.58852 15.2831 6.96625 15.3679 7.13273 15.5179C7.64555 15.9796 7.33258 16.7865 6.64062 16.7865C6.28477 16.7865 6.05008 16.6198 5.94117 16.2897ZM8.63188 15.9312C8.68031 15.7109 8.92336 15.4367 9.14062 15.3572C9.20508 15.3337 15.804 15.3116 23.8049 15.3083C34.9281 15.3036 38.4002 15.324 38.5569 15.3954C39.0089 15.6014 39.1118 16.2023 38.756 16.5581L38.5277 16.7865H23.829C13.8972 16.7865 9.08164 16.7604 8.98008 16.706C8.75531 16.5858 8.57586 16.1864 8.63188 15.9312ZM0 19.5301C0 19.2776 0.253125 18.9155 0.499063 18.8161C0.739688 18.719 0.840781 18.726 1.09531 18.8576C1.37859 19.0041 1.48438 19.1946 1.48438 19.5583C1.48438 20.2172 0.681172 20.4866 0.214844 19.9842C0.0849219 19.8442 0 19.6648 0 19.5301ZM2.96234 20.0079C2.61773 19.6222 2.69609 19.0917 3.13359 18.8482C3.28688 18.7628 5.25297 18.7473 14.1193 18.7615L24.9184 18.7786L25.1232 18.9836C25.5284 19.3886 25.3355 20.0705 24.773 20.222C24.5641 20.2783 21.0977 20.2978 13.8288 20.2836L3.19031 20.263L2.96234 20.0079ZM6.58172 23.6841C5.80578 23.6621 5.64102 22.559 6.36719 22.248C6.74555 22.086 7.27609 22.388 7.38656 22.8283C7.49422 23.2572 7.07938 23.6983 6.58172 23.6841ZM8.6307 22.8463C8.67937 22.587 8.87031 22.3456 9.10156 22.2509C9.1875 22.2158 15.041 22.1853 22.1094 22.1832C32.2023 22.1802 35.0029 22.2002 35.1562 22.2765C35.2637 22.3299 35.4147 22.5025 35.4919 22.66C35.62 22.9216 35.622 22.9706 35.5142 23.2286C35.4836 23.3018 35.4743 23.3646 35.4471 23.4184C35.2714 23.767 34.3498 23.7396 22.0779 23.7396C13.9707 23.7396 9.23391 23.7118 9.10672 23.6634C8.82352 23.5558 8.57695 23.1326 8.6307 22.8463ZM2.37766 27.1391C1.67898 27.2672 1.24969 26.2864 1.80445 25.8294C2.00805 25.6617 2.48461 25.6516 2.71102 25.8101C2.93336 25.9658 3.07289 26.3956 2.98008 26.6385C2.88125 26.8968 2.64977 27.0893 2.37766 27.1391ZM4.68758 27.0402C4.18219 26.7877 4.0907 26.1787 4.50875 25.8499C4.70453 25.6958 4.81609 25.6927 10.0531 25.6927H15.3977L15.5895 25.8845C15.7985 26.0935 15.8481 26.5155 15.6969 26.7982C15.4967 27.1722 15.4223 27.1771 10.022 27.1769C5.36008 27.1768 4.93937 27.1661 4.68758 27.0402ZM17.6012 26.9232C17.3155 26.6376 17.3035 26.1804 17.574 25.8924L17.7616 25.6927H28.6125C36.2359 25.6927 39.5103 25.7178 39.6211 25.7771C39.7079 25.8236 39.8291 25.9818 39.8905 26.1286C39.9877 26.3615 39.9873 26.4314 39.8866 26.6721C39.8558 26.746 39.8429 26.8092 39.8132 26.8632C39.626 27.204 38.7711 27.1779 28.518 27.1584L17.816 27.138L17.6012 26.9232ZM19.7595 30.5768C19.0329 30.7365 18.5373 29.8777 19.0565 29.3586C19.5327 28.8823 20.3125 29.1771 20.3125 29.8335C20.3125 30.1951 20.081 30.5062 19.7595 30.5768ZM21.9523 30.4845C21.513 30.225 21.4392 29.7102 21.7909 29.3586L22.0192 29.1302H28.7882C33.4876 29.1302 35.6054 29.156 35.7148 29.2146C35.9389 29.3345 36.0998 29.7597 36.0261 30.0368C35.9927 30.162 35.8497 30.3415 35.7057 30.4388L35.4456 30.6146H28.8091C22.7574 30.6146 22.1531 30.6031 21.9523 30.4845ZM10.9654 33.0121C11.028 32.8624 11.1439 32.7022 11.2231 32.6562C11.3023 32.6101 11.4942 32.5714 11.6495 32.5701C12.2961 32.5647 12.5883 33.3508 12.1154 33.8237C11.5435 34.3956 10.6506 33.7654 10.9654 33.0121ZM13.9802 33.92C13.5395 33.6597 13.4891 33.0354 13.8838 32.7249C14.0805 32.5701 14.1882 32.5677 20.8525 32.5677C27.0707 32.5677 27.7987 32.5458 27.9682 32.8428C28.0024 32.9027 28.0139 32.9757 28.0432 33.0645C28.1502 33.3885 28.0608 33.6558 27.7687 33.8856L27.557 34.0521H20.8804C14.7514 34.0521 14.1855 34.0412 13.9802 33.92Z" fill="#8F9095"/>
</svg>
